<svg width="41" height="40" viewBox="0 0 41 40" fill="none" xmlns="http://www.w3.org/2000/svg">
<path fill-rule="evenodd" clip-rule="evenodd" d="M2.58325 20C2.58325 10.1049 10.6048 2.08337 20.4999 2.08337C21.7254 2.08337 22.9235 2.2066 24.0819 2.44176C24.7585 2.5791 25.1956 3.2389 25.0583 3.91545C24.9209 4.59201 24.2611 5.02913 23.5846 4.89179C22.589 4.68968 21.5574 4.58337 20.4999 4.58337C11.9855 4.58337 5.08325 11.4856 5.08325 20C5.08325 28.5144 11.9855 35.4167 20.4999 35.4167C29.0142 35.4167 35.9166 28.5144 35.9166 20C35.9166 18.9426 35.8102 17.911 35.6082 16.9152C35.4709 16.2387 35.9081 15.5789 36.5847 15.4417C37.2613 15.3044 37.921 15.7416 38.0583 16.4182C38.2933 17.5764 38.4166 18.7745 38.4166 20C38.4166 29.8951 30.3949 37.9167 20.4999 37.9167C10.6048 37.9167 2.58325 29.8951 2.58325 20ZM20.4999 12.9167C16.5879 12.9167 13.4166 16.088 13.4166 20C13.4166 23.912 16.5879 27.0834 20.4999 27.0834C24.4119 27.0834 27.5833 23.912 27.5833 20C27.5833 19.3097 28.1429 18.75 28.8333 18.75C29.5236 18.75 30.0833 19.3097 30.0833 20C30.0833 25.2927 25.7926 29.5834 20.4999 29.5834C15.2072 29.5834 10.9166 25.2927 10.9166 20C10.9166 14.7073 15.2072 10.4167 20.4999 10.4167C21.1903 10.4167 21.7499 10.9764 21.7499 11.6667C21.7499 12.3571 21.1903 12.9167 20.4999 12.9167ZM33.6721 3.55733C33.2558 2.22086 31.5911 1.60173 30.4188 2.55969C29.2118 3.54602 27.7661 4.84195 26.9517 6.53355C26.2034 8.08788 26.029 9.88455 26.8079 11.9121L19.6665 19.0536C19.1783 19.5417 19.1783 20.3332 19.6665 20.8213C20.1546 21.3095 20.9461 21.3095 21.4343 20.8213L28.5416 13.714C30.7019 14.5213 32.5521 14.3073 34.1209 13.5045C35.7626 12.6644 36.9914 11.2251 37.9182 10.1061C38.8953 8.92631 38.2715 7.21576 36.8882 6.81585C36.8725 6.81131 36.8567 6.80707 36.8408 6.80315L34.409 6.20248L33.6829 3.59384C33.6795 3.58161 33.6759 3.56944 33.6721 3.55733ZM32.9821 11.2789C32.0351 11.7635 30.8694 11.9568 29.2644 11.3134C28.5807 9.76619 28.7342 8.59434 29.2042 7.61799C29.6742 6.64187 30.5017 5.77616 31.464 4.94543L32.1964 7.57616C32.3173 8.01067 32.663 8.34632 33.1008 8.45448L35.5345 9.05562C34.7362 9.9833 33.9261 10.7959 32.9821 11.2789Z" fill="#120D43"/>
</svg>
