<svg width="24" height="25" viewBox="0 0 24 25" fill="none" xmlns="http://www.w3.org/2000/svg">
<path fill-rule="evenodd" clip-rule="evenodd" d="M12 12.9844C10.208 12.9844 8.74999 11.5264 8.74999 9.73438C8.74999 7.94238 10.208 6.48438 12 6.48438C13.792 6.48438 15.25 7.94238 15.25 9.73438C15.25 11.5264 13.792 12.9844 12 12.9844ZM12 7.98438C11.035 7.98438 10.25 8.76937 10.25 9.73438C10.25 10.6994 11.035 11.4844 12 11.4844C12.965 11.4844 13.75 10.6994 13.75 9.73438C13.75 8.76937 12.965 7.98438 12 7.98438Z" fill="#3C3A75"/>
<path fill-rule="evenodd" clip-rule="evenodd" d="M12 19.4844C11.334 19.4844 10.703 19.2304 10.223 18.7694C9.97981 18.534 9.7329 18.2986 9.48316 18.0604L9.45894 18.0374C6.48695 15.2084 2.78796 11.6874 4.84195 6.75039C6.02695 3.89939 8.90395 1.98438 12 1.98438C15.096 1.98438 17.9739 3.89939 19.1589 6.75039C21.2198 11.7052 17.4903 15.243 14.4943 18.085C14.2513 18.315 14.011 18.5434 13.777 18.7684C13.297 19.2304 12.666 19.4844 12 19.4844ZM12 3.48438C9.50195 3.48438 7.18196 5.02837 6.22696 7.32637C4.56901 11.3112 7.58077 14.1782 10.4927 16.9501C10.7547 17.1991 11.0129 17.4454 11.2649 17.6894C11.4619 17.8784 11.724 17.9844 12 17.9844C12.276 17.9844 12.538 17.8794 12.737 17.6884C12.92 17.5123 13.1067 17.3349 13.2951 17.1559L13.462 16.9974C16.401 14.2104 19.439 11.3284 17.775 7.32637C16.819 5.02837 14.498 3.48438 12 3.48438Z" fill="#3C3A75"/>
<path d="M5.24999 20.7344C5.24999 22.6234 8.74899 23.4844 12 23.4844C15.251 23.4844 18.75 22.6234 18.75 20.7344C18.75 20.3204 18.411 19.9844 18 19.9844C17.589 19.9844 17.255 20.3154 17.25 20.7254C17.132 21.0764 15.36 21.9844 12 21.9844C8.63999 21.9844 6.86799 21.0774 6.74999 20.7254C6.74499 20.3154 6.41399 19.9844 5.99999 19.9844C5.58599 19.9844 5.24999 20.3204 5.24999 20.7344Z" fill="#3C3A75"/>
</svg>
