<svg width="24" height="25" viewBox="0 0 24 25" fill="none" xmlns="http://www.w3.org/2000/svg">
<path d="M9.56146 11.6188C10.5415 12.1958 11.2705 12.4848 11.9995 12.4848C12.7295 12.4848 13.4585 12.1968 14.4395 11.6188L17.3815 9.87875C17.7385 9.66875 17.8564 9.2088 17.6454 8.8518C17.4354 8.4948 16.9755 8.37673 16.6185 8.58773L13.6775 10.3268C12.2035 11.1938 11.7955 11.1938 10.3235 10.3268L7.38148 8.58676C7.02548 8.37576 6.56543 8.49472 6.35443 8.85072C6.14343 9.20672 6.2625 9.66677 6.61849 9.87777L9.56146 11.6188Z" fill="#3C3A75"/>
<path fill-rule="evenodd" clip-rule="evenodd" d="M9.0802 21.9428C10.0622 21.9678 11.0312 21.9809 12.0002 21.9809C12.9692 21.9809 13.9382 21.9678 14.9202 21.9428L14.9216 21.9427C18.1587 21.8608 19.9424 21.8156 21.2872 20.4718C22.6292 19.1188 22.6662 17.3828 22.7332 14.2298C22.7542 13.2228 22.7542 12.2448 22.7332 11.2378C22.6662 8.08479 22.6292 6.34777 21.2842 4.99277C19.9412 3.65177 18.1573 3.60583 14.9193 3.52383C12.9543 3.47383 11.0442 3.47383 9.07923 3.52383L9.07788 3.52386C5.84073 3.60584 4.05705 3.65101 2.71223 4.99482C1.37023 6.34782 1.33324 8.08382 1.26624 11.2368C1.24524 12.2438 1.24524 13.2218 1.26624 14.2288C1.33324 17.3818 1.37026 19.1188 2.71526 20.4738C4.05826 21.8148 5.8422 21.8608 9.0802 21.9428ZM3.77727 19.4138C2.85627 18.4868 2.82726 17.1418 2.76526 14.1968C2.74426 13.2108 2.74426 12.2528 2.76526 11.2678C2.82726 8.32277 2.85625 6.97883 3.77425 6.05283C4.69317 5.13391 6.07899 5.09878 9.11647 5.0218C11.0565 4.9718 12.9423 4.97178 14.8813 5.02178C17.9193 5.09878 19.3053 5.13478 20.2223 6.05078C21.1433 6.97778 21.1722 8.32277 21.2342 11.2678C21.2552 12.2538 21.2552 13.2118 21.2342 14.1968C21.1722 17.1418 21.1432 18.4858 20.2252 19.4118C19.3064 20.3306 17.9208 20.3658 14.884 20.4427L14.8823 20.4428C12.9423 20.4928 11.0573 20.4928 9.11829 20.4428C6.08029 20.3658 4.69427 20.3298 3.77727 19.4138Z" fill="#3C3A75"/>
</svg>
