<svg width="24" height="25" viewBox="0 0 24 25" fill="none" xmlns="http://www.w3.org/2000/svg">
<path fill-rule="evenodd" clip-rule="evenodd" d="M8.97333 6.98458L8.88067 6.98448C8.40101 6.98367 7.95852 6.98292 7.52334 7.1817C7.20718 7.32611 6.93817 7.57146 6.74229 7.81651C6.5464 8.06157 6.36632 8.37801 6.29509 8.71821C6.19745 9.18456 6.27798 9.53939 6.36412 9.91897L6.37601 9.97147C6.81052 11.8958 7.82634 13.7826 9.38916 15.3454C10.952 16.9082 12.8388 17.9241 14.7631 18.3586L14.8156 18.3705C15.1952 18.4566 15.55 18.5371 16.0164 18.4395C16.3566 18.3683 16.673 18.1882 16.9181 17.9923C17.1631 17.7964 17.4085 17.5274 17.5529 17.2112C17.7517 16.7761 17.7509 16.3336 17.7501 15.8539L17.75 15.7613C17.75 15.5409 17.7432 15.1698 17.6003 14.8267C17.4295 14.417 17.0777 14.0792 16.5263 13.9928L16.5205 13.9919C15.8372 13.8848 15.3175 13.8034 14.9501 13.75C14.7662 13.7232 14.6135 13.7025 14.4941 13.6889C14.396 13.6778 14.2609 13.6638 14.1479 13.6704C13.6584 13.699 13.269 13.8976 12.9674 14.1043C12.7755 14.2358 12.5669 14.412 12.4029 14.5505C12.3385 14.6049 12.281 14.6535 12.234 14.6913L11.5521 15.2404C11.1699 14.9545 10.801 14.6359 10.4498 14.2848C10.0987 13.9336 9.78007 13.5647 9.4942 13.1825L10.0433 12.5006C10.0811 12.4536 10.1297 12.3961 10.1841 12.3317C10.3226 12.1677 10.4988 11.9591 10.6303 11.7672C10.837 11.4656 11.0355 11.0762 11.0642 10.5867C11.0708 10.4737 11.0568 10.3386 11.0456 10.2405C11.0321 10.1211 11.0113 9.96843 10.9846 9.78452C10.9312 9.41704 10.8498 8.89758 10.7427 8.21406L10.7418 8.20832C10.6553 7.65688 10.3176 7.30509 9.90784 7.13433C9.56482 6.99138 9.1937 6.98458 8.97333 6.98458ZM15.0935 16.8954C14.3511 16.7278 13.6101 16.4574 12.8947 16.0851L13.1747 15.8597C13.2845 15.7713 13.3728 15.6962 13.4517 15.6292C13.5808 15.5194 13.6846 15.4313 13.8153 15.3416C13.9833 15.2265 14.1059 15.1793 14.2187 15.1691C14.22 15.1692 14.2218 15.1693 14.2243 15.1695C14.2375 15.1706 14.2687 15.173 14.3248 15.1794C14.4206 15.1902 14.5548 15.2083 14.7343 15.2344C15.0816 15.2849 15.5727 15.3617 16.2315 15.4649C16.2342 15.4792 16.2368 15.4962 16.2391 15.5161C16.2471 15.5833 16.25 15.663 16.25 15.7613C16.25 16.386 16.2356 16.4849 16.1885 16.588C16.1695 16.6297 16.1033 16.7232 15.9815 16.8206C15.8596 16.918 15.7538 16.9619 15.709 16.9713C15.5875 16.9968 15.5334 16.9948 15.0935 16.8954ZM8.87492 11.5599L8.64944 11.8399C8.27719 11.1245 8.00681 10.3835 7.83917 9.64108C7.73983 9.20114 7.73782 9.14711 7.76326 9.02561C7.77264 8.98079 7.81655 8.87495 7.91395 8.75311C8.01134 8.63127 8.10491 8.56512 8.14657 8.5461C8.24972 8.49898 8.34856 8.48458 8.97333 8.48458C9.07155 8.48458 9.15128 8.48753 9.21848 8.49548C9.2384 8.49783 9.25535 8.50043 9.26964 8.50303C9.37288 9.16186 9.44972 9.65301 9.50021 10.0003C9.52629 10.1797 9.54434 10.314 9.55522 10.4098C9.56159 10.4659 9.56401 10.497 9.56505 10.5103C9.56524 10.5128 9.56538 10.5146 9.5655 10.5159C9.55532 10.6287 9.50805 10.7513 9.39294 10.9192C9.30333 11.05 9.21514 11.1538 9.1054 11.2829C9.03836 11.3618 8.96327 11.4501 8.87492 11.5599Z" fill="#3C3A75"/>
<path fill-rule="evenodd" clip-rule="evenodd" d="M12 1.98438C6.06296 1.98437 1.25002 6.79731 1.25002 12.7344C1.25002 14.2153 1.54989 15.6281 2.09293 16.9138C2.23539 17.2511 2.33142 17.4791 2.39557 17.6542C2.46099 17.8328 2.47018 17.8975 2.47134 17.9141C2.47783 18.008 2.45407 18.1357 2.29192 18.7417L1.2755 22.5405C1.20627 22.7993 1.28029 23.0753 1.46969 23.2647C1.65909 23.4541 1.93512 23.5281 2.19387 23.4589L5.99264 22.4425C6.59867 22.2803 6.72635 22.2566 6.82026 22.2631C6.83692 22.2642 6.90154 22.2734 7.08019 22.3388C7.25534 22.403 7.48326 22.499 7.82056 22.6415C9.10634 23.1845 10.5191 23.4844 12 23.4844C17.9371 23.4844 22.75 18.6714 22.75 12.7344C22.75 6.79731 17.9371 1.98438 12 1.98438ZM2.75002 12.7344C2.75002 7.62574 6.89138 3.48438 12 3.48438C17.1087 3.48438 21.25 7.62574 21.25 12.7344C21.25 17.843 17.1087 21.9844 12 21.9844C10.7232 21.9844 9.50859 21.7261 8.40417 21.2596L8.38682 21.2523C8.07139 21.1191 7.80962 21.0085 7.59603 20.9303C7.38203 20.8519 7.15675 20.7828 6.92382 20.7666C6.54562 20.7405 6.15333 20.846 5.70258 20.9672L3.06002 21.6744L3.76716 19.0318C3.88841 18.5811 3.99393 18.1888 3.96776 17.8106C3.95164 17.5776 3.88245 17.3524 3.80408 17.1384C3.72587 16.9248 3.61533 16.6631 3.48214 16.3477L3.47475 16.3302C3.00829 15.2258 2.75002 14.0112 2.75002 12.7344Z" fill="#3C3A75"/>
</svg>
