<svg width="53" height="54" viewBox="0 0 53 54" fill="none" xmlns="http://www.w3.org/2000/svg">
<path d="M34.0073 17.1789C33.4157 17.8652 33.4925 18.9012 34.1789 19.4927L36.8619 21.8053C37.2988 22.1819 37.5873 22.4331 37.7856 22.625C37.5873 22.817 37.2988 23.0682 36.8619 23.4447L34.1789 25.7573C33.4925 26.3489 33.4157 27.3848 34.0073 28.0712C34.5989 28.7575 35.6348 28.8343 36.3211 28.2427L39.0728 25.871C39.5769 25.4367 40.0735 25.0088 40.4305 24.6056C40.8253 24.1596 41.2656 23.51 41.2656 22.625C41.2656 21.74 40.8253 21.0905 40.4305 20.6445C40.0735 20.2412 39.5769 19.8134 39.0728 19.379L36.3211 17.0073C35.6348 16.4157 34.5989 16.4926 34.0073 17.1789Z" fill="#1B1464"/>
<path d="M18.8211 19.4927C19.5075 18.9012 19.5843 17.8652 18.9927 17.1789C18.4011 16.4926 17.3652 16.4157 16.6789 17.0073L13.9272 19.379C13.4231 19.8134 12.9265 20.2412 12.5695 20.6445C12.1747 21.0905 11.7344 21.74 11.7344 22.625C11.7344 23.51 12.1747 24.1596 12.5695 24.6056C12.9265 25.0088 13.4231 25.4367 13.9272 25.871L16.6789 28.2427C17.3652 28.8343 18.4011 28.7575 18.9927 28.0712C19.5843 27.3848 19.5075 26.3489 18.8211 25.7573L16.1381 23.4447C15.7012 23.0682 15.4127 22.817 15.2144 22.625C15.4127 22.4331 15.7012 22.1819 16.1381 21.8053L18.8211 19.4927Z" fill="#1B1464"/>
<path d="M29.2062 14.5065C30.0658 14.793 30.5304 15.7222 30.2438 16.5818L25.8688 29.7068C25.5823 30.5664 24.6532 31.0309 23.7936 30.7444C22.934 30.4578 22.4694 29.5287 22.756 28.6691L27.131 15.5441C27.4175 14.6845 28.3466 14.22 29.2062 14.5065Z" fill="#1B1464"/>
<path fill-rule="evenodd" clip-rule="evenodd" d="M22.0296 3.48438H30.9704C34.4762 3.48436 37.2376 3.48434 39.4348 3.71594C41.6811 3.95272 43.526 4.44625 45.1184 5.5613C46.2158 6.3297 47.1703 7.28419 47.9387 8.38158C49.0538 9.97405 49.5473 11.8189 49.7841 14.0652C50.0157 16.2624 50.0156 19.0237 50.0156 22.5295V22.7205C50.0156 26.2263 50.0157 28.9876 49.7841 31.1848C49.5473 33.4311 49.0538 35.276 47.9387 36.8684C47.1703 37.9658 46.2158 38.9203 45.1184 39.6887C43.526 40.8038 41.6811 41.2973 39.4348 41.5341C37.2939 41.7597 34.6174 41.7655 31.2384 41.7656C30.7403 43.5331 31.2199 45.4656 32.5533 46.799L32.9887 47.2344H37.4375C38.3436 47.2344 39.0781 47.9689 39.0781 48.875C39.0781 49.7811 38.3436 50.5156 37.4375 50.5156H32.3439C32.3209 50.5161 32.298 50.5161 32.2751 50.5156H19.973C19.9501 50.5161 19.9271 50.5161 19.9042 50.5156H15.5625C14.6564 50.5156 13.9219 49.7811 13.9219 48.875C13.9219 47.9689 14.6564 47.2344 15.5625 47.2344H19.2594L19.6947 46.799C21.0282 45.4655 21.5078 43.533 21.0095 41.7654C17.9823 41.7634 15.5448 41.7427 13.5652 41.5341C11.3189 41.2973 9.47405 40.8038 7.88158 39.6887C6.78419 38.9203 5.8297 37.9658 5.0613 36.8684C3.94625 35.276 3.45272 33.4311 3.21594 31.1848C2.98434 28.9876 2.98436 26.2262 2.98438 22.7204V22.5296C2.98436 19.0238 2.98434 16.2624 3.21594 14.0652C3.45272 11.8189 3.94625 9.97405 5.0613 8.38158C5.8297 7.28419 6.78419 6.3297 7.88158 5.5613C9.47405 4.44625 11.3189 3.95272 13.5652 3.71594C15.7624 3.48434 18.5238 3.48436 22.0296 3.48438ZM23.4336 47.2344H28.8144C27.8953 45.5697 27.5664 43.6386 27.8805 41.7656H24.3675C24.6816 43.6386 24.3528 45.5697 23.4336 47.2344ZM22.1229 38.4844C18.5019 38.4844 15.914 38.4822 13.9092 38.2709C11.9332 38.0626 10.7136 37.666 9.76363 37.0009C8.97978 36.452 8.298 35.7702 7.74914 34.9864C7.08398 34.0364 6.68739 32.8168 6.47911 30.8408C6.26776 28.8356 6.26563 26.2471 6.26563 22.625C6.26563 19.0029 6.26776 16.4144 6.47911 14.4092C6.68739 12.4332 7.08398 11.2136 7.74914 10.2636C8.298 9.47978 8.97978 8.798 9.76363 8.24914C10.7136 7.58398 11.9332 7.18739 13.9092 6.97911C15.9144 6.76776 18.5029 6.76563 22.125 6.76563H30.875C34.4971 6.76563 37.0856 6.76776 39.0908 6.97911C41.0668 7.18739 42.2864 7.58398 43.2364 8.24915C44.0202 8.798 44.702 9.47978 45.2509 10.2636C45.916 11.2136 46.3126 12.4332 46.5209 14.4092C46.7322 16.4144 46.7344 19.0029 46.7344 22.625C46.7344 26.2471 46.7322 28.8356 46.5209 30.8408C46.3126 32.8168 45.916 34.0364 45.2509 34.9864C44.702 35.7702 44.0202 36.452 43.2364 37.0009C42.2864 37.666 41.0668 38.0626 39.0908 38.2709C37.0856 38.4822 34.4971 38.4844 30.875 38.4844H22.1229Z" fill="#1B1464"/>
</svg>
