<svg width="53" height="54" viewBox="0 0 53 54" fill="none" xmlns="http://www.w3.org/2000/svg">
<path d="M13.5719 33.5603C12.7202 31.6353 12.2806 29.5534 12.2812 27.4484C12.2813 19.3437 18.6469 12.7791 26.5 12.7791C34.3531 12.7791 40.7188 19.3459 40.7188 27.4484C40.7194 29.5534 40.2798 31.6353 39.4281 33.5603M26.5 5.1228V7.3103M48.375 26.9978H46.1875M6.8125 26.9978H4.625M41.9656 11.53L40.4191 13.0766M12.5809 13.0787L11.0344 11.5322M32.0059 42.9819C34.2153 42.2666 35.1034 40.2431 35.3528 38.2087C35.4272 37.6006 34.9262 37.0953 34.3137 37.0953H18.7934C18.6439 37.0929 18.4955 37.1223 18.3581 37.1816C18.2208 37.2408 18.0976 37.3286 17.9966 37.439C17.8957 37.5494 17.8194 37.68 17.7727 37.8221C17.7261 37.9643 17.7101 38.1147 17.7259 38.2634C17.9709 40.2934 18.5878 41.7766 20.9284 42.9797M32.0059 42.9819L20.9284 42.9797M32.0059 42.9819C31.7413 47.2366 30.5119 48.9209 26.5153 48.8728C22.2409 48.9516 21.2566 46.8669 20.9284 42.9797" stroke="#1B1464" stroke-width="3.28125" stroke-linecap="round" stroke-linejoin="round"/>
</svg>
