<svg width="53" height="54" viewBox="0 0 53 54" fill="none" xmlns="http://www.w3.org/2000/svg">
<path d="M19.9373 18.7969H23.2185V28.6406H19.9373V18.7969ZM11.7341 22.0781H15.0154V28.6406H11.7341V22.0781ZM3.53101 12.2344H6.81226V28.6406H3.53101V12.2344Z" fill="#1B1464"/>
<path d="M49.4683 47.6489L37.0783 35.2589C39.7857 32.0232 41.2679 27.9378 41.2651 23.7188C41.2651 13.7684 33.1687 5.67188 23.2183 5.67188C19.2758 5.67188 15.5319 6.91875 12.3885 9.28125L14.3572 11.9063C16.9091 9.98043 20.0213 8.94321 23.2183 8.95312C31.3607 8.95312 37.9839 15.5763 37.9839 23.7188C37.9839 31.8612 31.3607 38.4844 23.2183 38.4844C20.9244 38.4934 18.6605 37.9636 16.6088 36.9378C14.557 35.9119 12.7749 34.4186 11.4058 32.5781L8.78076 34.5502C10.455 36.7985 12.6334 38.6226 15.1409 39.8758C17.6485 41.129 20.4151 41.7763 23.2183 41.7656C27.6037 41.7656 31.6281 40.1906 34.7584 37.5787L47.1484 49.9688L49.4683 47.6489Z" fill="#1B1464"/>
</svg>
