<svg width="53" height="54" viewBox="0 0 53 54" fill="none" xmlns="http://www.w3.org/2000/svg">
<path d="M32.9961 11.4116C32.6516 11.4116 32.3212 11.5485 32.0775 11.7921C31.8339 12.0357 31.6971 12.3661 31.6971 12.7106V15.3087C31.6971 15.6532 31.8339 15.9836 32.0775 16.2272C32.3212 16.4709 32.6516 16.6077 32.9961 16.6077C33.3406 16.6077 33.671 16.4709 33.9146 16.2272C34.1583 15.9836 34.2951 15.6532 34.2951 15.3087V12.7106C34.2951 12.3661 34.1583 12.0357 33.9146 11.7921C33.671 11.5485 33.3406 11.4116 32.9961 11.4116ZM26.501 12.7106C26.501 12.3661 26.6378 12.0357 26.8815 11.7921C27.1251 11.5485 27.4555 11.4116 27.8 11.4116C28.1445 11.4116 28.4749 11.5485 28.7186 11.7921C28.9622 12.0357 29.099 12.3661 29.099 12.7106V15.3087C29.099 15.6532 28.9622 15.9836 28.7186 16.2272C28.4749 16.4709 28.1445 16.6077 27.8 16.6077C27.4555 16.6077 27.1251 16.4709 26.8815 16.2272C26.6378 15.9836 26.501 15.6532 26.501 15.3087V12.7106ZM38.1922 11.4116C37.8477 11.4116 37.5173 11.5485 37.2736 11.7921C37.03 12.0357 36.8932 12.3661 36.8932 12.7106V15.3087C36.8932 15.6532 37.03 15.9836 37.2736 16.2272C37.5173 16.4709 37.8477 16.6077 38.1922 16.6077C38.5367 16.6077 38.8671 16.4709 39.1107 16.2272C39.3544 15.9836 39.4912 15.6532 39.4912 15.3087V12.7106C39.4912 12.3661 39.3544 12.0357 39.1107 11.7921C38.8671 11.5485 38.5367 11.4116 38.1922 11.4116ZM31.6971 25.7009C31.6971 25.3564 31.8339 25.026 32.0775 24.7823C32.3212 24.5387 32.6516 24.4019 32.9961 24.4019C33.3406 24.4019 33.671 24.5387 33.9146 24.7823C34.1583 25.026 34.2951 25.3564 34.2951 25.7009V28.2989C34.2951 28.6435 34.1583 28.9739 33.9146 29.2175C33.671 29.4611 33.3406 29.598 32.9961 29.598C32.6516 29.598 32.3212 29.4611 32.0775 29.2175C31.8339 28.9739 31.6971 28.6435 31.6971 28.2989V25.7009ZM27.8 24.4019C27.4555 24.4019 27.1251 24.5387 26.8815 24.7823C26.6378 25.026 26.501 25.3564 26.501 25.7009V28.2989C26.501 28.6435 26.6378 28.9739 26.8815 29.2175C27.1251 29.4611 27.4555 29.598 27.8 29.598C28.1445 29.598 28.4749 29.4611 28.7186 29.2175C28.9622 28.9739 29.099 28.6435 29.099 28.2989V25.7009C29.099 25.3564 28.9622 25.026 28.7186 24.7823C28.4749 24.5387 28.1445 24.4019 27.8 24.4019ZM36.8932 25.7009C36.8932 25.3564 37.03 25.026 37.2736 24.7823C37.5173 24.5387 37.8477 24.4019 38.1922 24.4019C38.5367 24.4019 38.8671 24.5387 39.1107 24.7823C39.3544 25.026 39.4912 25.3564 39.4912 25.7009V28.2989C39.4912 28.6435 39.3544 28.9739 39.1107 29.2175C38.8671 29.4611 38.5367 29.598 38.1922 29.598C37.8477 29.598 37.5173 29.4611 37.2736 29.2175C37.03 28.9739 36.8932 28.6435 36.8932 28.2989V25.7009ZM32.9961 37.3921C32.6516 37.3921 32.3212 37.529 32.0775 37.7726C31.8339 38.0162 31.6971 38.3466 31.6971 38.6911V41.2892C31.6971 41.6337 31.8339 41.9641 32.0775 42.2077C32.3212 42.4513 32.6516 42.5882 32.9961 42.5882C33.3406 42.5882 33.671 42.4513 33.9146 42.2077C34.1583 41.9641 34.2951 41.6337 34.2951 41.2892V38.6911C34.2951 38.3466 34.1583 38.0162 33.9146 37.7726C33.671 37.529 33.3406 37.3921 32.9961 37.3921ZM26.501 38.6911C26.501 38.3466 26.6378 38.0162 26.8815 37.7726C27.1251 37.529 27.4555 37.3921 27.8 37.3921C28.1445 37.3921 28.4749 37.529 28.7186 37.7726C28.9622 38.0162 29.099 38.3466 29.099 38.6911V41.2892C29.099 41.6337 28.9622 41.9641 28.7186 42.2077C28.4749 42.4513 28.1445 42.5882 27.8 42.5882C27.4555 42.5882 27.1251 42.4513 26.8815 42.2077C26.6378 41.9641 26.501 41.6337 26.501 41.2892V38.6911ZM38.1922 37.3921C37.8477 37.3921 37.5173 37.529 37.2736 37.7726C37.03 38.0162 36.8932 38.3466 36.8932 38.6911V41.2892C36.8932 41.6337 37.03 41.9641 37.2736 42.2077C37.5173 42.4513 37.8477 42.5882 38.1922 42.5882C38.5367 42.5882 38.8671 42.4513 39.1107 42.2077C39.3544 41.9641 39.4912 41.6337 39.4912 41.2892V38.6911C39.4912 38.3466 39.3544 38.0162 39.1107 37.7726C38.8671 37.529 38.5367 37.3921 38.1922 37.3921Z" fill="#1B1464"/>
<path fill-rule="evenodd" clip-rule="evenodd" d="M8.31518 20.5049C6.964 19.4911 6.06097 17.9907 5.79767 16.3221C5.71973 15.818 5.71973 15.2127 5.71973 14.0072C5.71973 12.8017 5.71973 12.1964 5.79767 11.6923C6.01158 10.336 6.64982 9.08238 7.62074 8.11146C8.59166 7.14055 9.84529 6.5023 11.2016 6.28839C11.7056 6.21045 12.311 6.21045 13.5165 6.21045H39.497C40.7025 6.21045 41.3078 6.21045 41.8118 6.28839C43.1681 6.5023 44.4218 7.14055 45.3927 8.11146C46.3636 9.08238 47.0019 10.336 47.2158 11.6923C47.2937 12.1964 47.2937 12.8017 47.2937 14.0072C47.2937 15.2127 47.2937 15.818 47.2158 16.3221C46.9525 17.9907 46.0494 19.4911 44.6983 20.5049C46.0181 21.4948 46.9456 22.9783 47.2158 24.6878C47.2937 25.1918 47.2937 25.7971 47.2937 27.0026C47.2937 28.2081 47.2937 28.8135 47.2158 29.3175C46.9525 30.9861 46.0494 32.4865 44.6983 33.5004C46.0181 34.4902 46.9456 35.9737 47.2158 37.6832C47.2937 38.1872 47.2937 38.7926 47.2937 39.9981C47.2937 41.2036 47.2937 41.8089 47.2158 42.3129C47.0019 43.6693 46.3636 44.9229 45.3927 45.8938C44.4218 46.8647 43.1681 47.503 41.8118 47.7169C41.3078 47.7948 40.7025 47.7948 39.497 47.7948H13.5165C12.311 47.7948 11.7056 47.7948 11.2016 47.7169C9.84529 47.503 8.59166 46.8647 7.62074 45.8938C6.64982 44.9229 6.01158 43.6693 5.79767 42.3129C5.71973 41.8089 5.71973 41.2036 5.71973 39.9981C5.71973 38.7926 5.71973 38.1872 5.79767 37.6832C6.06787 35.9763 6.99537 34.4876 8.31518 33.5004C6.964 32.4865 6.06097 30.9861 5.79767 29.3175C5.71973 28.8135 5.71973 28.2081 5.71973 27.0026C5.71973 25.7971 5.71973 25.1918 5.79767 24.6878C6.06787 22.9809 6.99537 21.4922 8.31518 20.5049ZM13.5113 8.81369H39.4918C40.7986 8.81369 41.1493 8.82149 41.4013 8.86306C43.0693 9.12806 44.3891 10.4349 44.6489 12.1106C44.6879 12.36 44.6983 12.7108 44.6983 14.0176C44.6983 15.3244 44.6879 15.6751 44.6489 15.9272C44.5213 16.7426 44.138 17.4965 43.5543 18.0802C42.9707 18.6638 42.2168 19.0471 41.4013 19.1747C41.1493 19.2163 40.7986 19.2241 39.4918 19.2241H13.5113C12.2045 19.2241 11.8537 19.2163 11.6017 19.1773C10.7862 19.0497 10.0323 18.6664 9.4487 18.0828C8.86505 17.4991 8.48179 16.7452 8.35415 15.9298C8.31518 15.6777 8.30738 15.327 8.30738 14.0202C8.30738 12.7134 8.31518 12.3626 8.35415 12.1106C8.48179 11.2951 8.86505 10.5413 9.4487 9.95761C10.0323 9.37396 10.7862 8.9907 11.6017 8.86306C11.8537 8.82149 12.2045 8.81369 13.5113 8.81369ZM41.3104 32.1442C41.0584 32.1831 40.7077 32.1935 39.4008 32.1935H13.4203C12.1135 32.1935 11.7628 32.1831 11.5108 32.1442C10.6953 32.0165 9.94141 31.6333 9.35777 31.0496C8.77412 30.466 8.39086 29.7121 8.26322 28.8966C8.22425 28.6446 8.21645 28.2939 8.21645 26.987C8.21645 25.6802 8.22425 25.3295 8.26322 25.0775C8.39086 24.262 8.77412 23.5081 9.35777 22.9245C9.94141 22.3408 10.6953 21.9576 11.5108 21.8299C11.7628 21.791 12.1135 21.7832 13.4203 21.7832H39.4008C40.7077 21.7832 41.0584 21.791 41.3104 21.8299C42.9783 22.0949 44.2982 23.4017 44.558 25.0775C44.5969 25.3295 44.6073 25.6802 44.6073 26.987C44.6073 28.2939 44.5969 28.6446 44.558 28.8966C44.4303 29.7121 44.0471 30.466 43.4634 31.0496C42.8798 31.6333 42.1259 32.0165 41.3104 32.1442ZM11.4328 34.8461C11.6848 34.8072 12.0356 34.7994 13.3424 34.7994H39.3229C40.6297 34.7994 40.9804 34.8072 41.2325 34.8461C42.9004 35.1111 44.2202 36.418 44.48 38.0937C44.519 38.3457 44.5268 38.6965 44.5268 40.0033C44.5268 41.3101 44.519 41.6608 44.48 41.9128C44.3524 42.7283 43.9691 43.4822 43.3855 44.0659C42.8018 44.6495 42.0479 45.0328 41.2325 45.1604C40.9804 45.1994 40.6297 45.2072 39.3229 45.2072H13.3424C12.0356 45.2072 11.6848 45.1994 11.4328 45.1604C10.6174 45.0328 9.86347 44.6495 9.27982 44.0659C8.69618 43.4822 8.31291 42.7283 8.18528 41.9128C8.1463 41.6608 8.13591 41.3101 8.13591 40.0033C8.13591 38.6965 8.1463 38.3457 8.18528 38.0937C8.31291 37.2782 8.69618 36.5243 9.27982 35.9407C9.86347 35.357 10.6174 34.9738 11.4328 34.8461Z" fill="#1B1464"/>
</svg>
