<svg width="53" height="54" viewBox="0 0 53 54" fill="none" xmlns="http://www.w3.org/2000/svg">
<path d="M46.7449 16.3554L45.6643 14.4807C44.8484 13.0632 44.4393 12.3544 43.7459 12.0744C43.0503 11.7901 42.2649 12.0132 40.6943 12.4594L38.0256 13.2098C37.0215 13.4416 35.9693 13.3104 35.0527 12.8401L34.3156 12.4157C33.5298 11.9118 32.9258 11.1698 32.5918 10.2982L31.8612 8.11726C31.3799 6.67351 31.1393 5.95163 30.5706 5.53601C29.9952 5.12476 29.234 5.12476 27.7159 5.12476H25.279C23.7587 5.12476 22.9996 5.12476 22.4287 5.53819C21.8556 5.95163 21.6171 6.67351 21.1359 8.11726L20.4052 10.2982C20.0713 11.1698 19.4673 11.9118 18.6815 12.4157L17.9443 12.8401C17.028 13.31 15.9753 13.4417 14.9715 13.2119L12.3027 12.4594C10.7321 12.0132 9.94681 11.7901 9.25118 12.0723C8.55775 12.3566 8.14868 13.0632 7.33275 14.4807L6.25212 16.3554C5.4865 17.6832 5.10369 18.346 5.18025 19.0548C5.25244 19.7613 5.76431 20.3301 6.79025 21.4698L9.04337 23.9919C9.59681 24.6898 9.98837 25.906 9.98837 26.9998C9.98837 28.0935 9.59462 29.3098 9.04556 30.0076L6.79025 32.5298C5.76431 33.6673 5.25244 34.2382 5.17806 34.9448C5.10369 35.6513 5.4865 36.3163 6.25212 37.6441L7.33275 39.5188C8.14868 40.9363 8.55775 41.6451 9.25118 41.9251C9.94681 42.2094 10.7321 41.9863 12.3027 41.5401L14.9715 40.7898C15.9777 40.5579 17.0277 40.6891 17.9465 41.1594L18.6815 41.5838C19.4668 42.0869 20.0706 42.8307 20.4052 43.7013L21.1359 45.8823C21.6171 47.326 21.8577 48.0479 22.4265 48.4635C22.9996 48.8748 23.7609 48.8748 25.279 48.8748H27.7159C29.2362 48.8748 29.9952 48.8748 30.5662 48.4613C31.1393 48.0479 31.3799 47.3282 31.859 45.8844L32.5896 43.7013C32.9243 42.8285 33.5281 42.0869 34.3134 41.5838L35.0506 41.1594C35.9668 40.6895 37.0195 40.5578 38.0234 40.7876L40.6921 41.5401C42.2628 41.9863 43.0481 42.2094 43.7437 41.9273C44.4371 41.6429 44.8462 40.9363 45.6621 39.5188L46.7427 37.6441C47.5084 36.3163 47.8912 35.6535 47.8146 34.9448C47.7424 34.2382 47.2306 33.6694 46.2046 32.5298L43.9515 30.0076C43.3981 29.3076 43.0065 28.0935 43.0065 26.9998C43.0065 25.906 43.4002 24.6898 43.9493 23.9919L46.2046 21.4698C47.2306 20.3323 47.7424 19.7613 47.8168 19.0548C47.8912 18.3482 47.5106 17.6832 46.7449 16.3554Z" stroke="#1B1464" stroke-width="3.28125" stroke-linecap="round" stroke-linejoin="round"/>
<path d="M31.0103 25.9061L32.104 24.8124C33.0687 23.8477 33.5522 23.3643 34.1843 23.5655C34.8187 23.7646 34.9193 24.3377 35.1184 25.4839C35.2059 25.9769 35.2497 26.4822 35.2497 26.9999C35.2503 28.433 34.899 29.8444 34.2265 31.11C33.554 32.3756 32.5809 33.4566 31.3928 34.258C30.2047 35.0594 28.8379 35.5568 27.4125 35.7063C25.9872 35.8558 24.547 35.6529 23.2184 35.1155M22.1247 28.1702L20.9347 29.3602C19.9853 30.3096 19.5084 30.7864 18.8828 30.5961C18.255 30.4058 18.1434 29.8436 17.9203 28.7214C17.609 27.1725 17.7229 25.5682 18.2499 24.0788C18.777 22.5894 19.6974 21.2705 20.9136 20.262C22.1297 19.2535 23.5963 18.5932 25.1575 18.351C26.7187 18.1088 28.3164 18.2938 29.7809 18.8864" stroke="#1B1464" stroke-width="3.28125" stroke-linecap="round" stroke-linejoin="round"/>
</svg>
