<svg width="53" height="54" viewBox="0 0 53 54" fill="none" xmlns="http://www.w3.org/2000/svg">
<path d="M28.6875 27.5469C27.7814 27.5469 27.0469 28.2814 27.0469 29.1875C27.0469 30.0936 27.7814 30.8281 28.6875 30.8281H37.4375C38.3436 30.8281 39.0781 30.0936 39.0781 29.1875C39.0781 28.2814 38.3436 27.5469 37.4375 27.5469H28.6875Z" fill="#1B1464"/>
<path d="M27.0469 37.9375C27.0469 37.0314 27.7814 36.2969 28.6875 36.2969H33.0625C33.9686 36.2969 34.7031 37.0314 34.7031 37.9375C34.7031 38.8436 33.9686 39.5781 33.0625 39.5781H28.6875C27.7814 39.5781 27.0469 38.8436 27.0469 37.9375Z" fill="#1B1464"/>
<path d="M15.562 11.6875C14.3538 11.6875 13.3745 12.6669 13.3745 13.875C13.3745 15.0831 14.3538 16.0625 15.562 16.0625H15.5816C16.7897 16.0625 17.7691 15.0831 17.7691 13.875C17.7691 12.6669 16.7897 11.6875 15.5816 11.6875H15.562Z" fill="#1B1464"/>
<path d="M22.1245 13.875C22.1245 12.6669 23.1038 11.6875 24.312 11.6875H24.3316C25.5397 11.6875 26.5191 12.6669 26.5191 13.875C26.5191 15.0831 25.5397 16.0625 24.3316 16.0625H24.312C23.1038 16.0625 22.1245 15.0831 22.1245 13.875Z" fill="#1B1464"/>
<path fill-rule="evenodd" clip-rule="evenodd" d="M26.3749 4.57813H26.6251C31.4172 4.5781 35.1812 4.57807 38.1199 4.97317C41.1314 5.37805 43.5207 6.22469 45.398 8.102C47.2753 9.97931 48.1219 12.3686 48.5268 15.3801C48.9219 18.3188 48.9219 22.0827 48.9219 26.8749V27.1251C48.9219 31.9172 48.9219 35.6812 48.5268 38.6199C48.1219 41.6314 47.2753 44.0207 45.398 45.898C43.5207 47.7753 41.1314 48.6219 38.1199 49.0268C35.1812 49.4219 31.4173 49.4219 26.6251 49.4219H26.3749C24.1321 49.4219 22.1144 49.4219 20.3012 49.3814C20.1842 49.4079 20.0625 49.4219 19.9375 49.4219C19.7823 49.4219 19.6321 49.4003 19.4897 49.36C17.7646 49.3071 16.2346 49.2089 14.8801 49.0268C11.8686 48.6219 9.47931 47.7753 7.602 45.898C5.72469 44.0207 4.87805 41.6314 4.47317 38.6199C4.07807 35.6812 4.0781 31.9172 4.07813 27.1251V26.8749C4.0781 22.0828 4.07807 18.3188 4.47317 15.3801C4.87805 12.3686 5.72469 9.97931 7.602 8.102C9.47931 6.22469 11.8686 5.37805 14.8801 4.97317C17.8188 4.57807 21.5828 4.5781 26.3749 4.57813ZM21.5781 46.1214C23.047 46.1402 24.6784 46.1406 26.5 46.1406C31.4446 46.1406 34.9879 46.1371 37.6827 45.7748C40.3303 45.4189 41.9118 44.7438 43.0778 43.5778C44.2438 42.4118 44.9189 40.8303 45.2748 38.1827C45.6371 35.4879 45.6406 31.9446 45.6406 27C45.6406 25.1784 45.6402 23.547 45.6214 22.0781H21.5781V46.1214ZM18.2969 22.0781V46.0298C17.197 45.9756 16.2105 45.8949 15.3173 45.7748C12.6697 45.4189 11.0882 44.7438 9.92219 43.5778C8.75616 42.4118 8.08112 40.8303 7.72516 38.1827C7.36286 35.4879 7.35938 31.9446 7.35938 27C7.35938 25.1784 7.35985 23.547 7.37856 22.0781H18.2969ZM45.5298 18.7969C45.4756 17.697 45.3949 16.7105 45.2748 15.8173C44.9189 13.1697 44.2438 11.5882 43.0778 10.4222C41.9118 9.25616 40.3303 8.58112 37.6827 8.22516C34.9879 7.86286 31.4446 7.85938 26.5 7.85938C21.5554 7.85938 18.0121 7.86286 15.3173 8.22516C12.6697 8.58112 11.0882 9.25616 9.92219 10.4222C8.75616 11.5882 8.08112 13.1697 7.72516 15.8173C7.60507 16.7105 7.5244 17.697 7.47022 18.7969H45.5298Z" fill="#1B1464"/>
</svg>
