<svg width="56" height="56" viewBox="0 0 56 56" fill="none" xmlns="http://www.w3.org/2000/svg">
<path d="M28 2.00012V6.00012M40 6.00012L42 4.00012M16 6.00012L14 4.00012M54 54.0001H44.612C40.6189 54.0005 36.77 52.5078 33.8213 49.8153C30.8727 47.1227 29.0374 43.4248 28.676 39.4481L28.216 34.3841C28.1487 33.6703 28.287 32.9522 28.6144 32.3143C28.9418 31.6765 29.4448 31.1456 30.064 30.7841C30.5925 30.4733 31.1887 30.2958 31.8012 30.267C32.4136 30.2383 33.0239 30.3591 33.5792 30.619C34.1345 30.8789 34.6181 31.2702 34.9883 31.7589C35.3586 32.2476 35.6042 32.8192 35.704 33.4241L36.8 40.0001" stroke="#5E5D89" stroke-width="2.33333" stroke-linecap="round" stroke-linejoin="round"/>
<path d="M53.9995 39.9882H47.5035C46.5336 39.9889 45.5964 39.6372 44.8665 38.9985C44.1366 38.3598 43.6635 37.4776 43.5355 36.5162L41.0235 17.6522C40.9187 16.8686 40.6107 16.1261 40.1301 15.4983C39.6495 14.8706 39.0131 14.3794 38.284 14.0737C37.5549 13.768 36.7585 13.6584 35.9739 13.7556C35.1894 13.8529 34.4439 14.1537 33.8115 14.6282C32.6715 15.4842 31.9995 16.8282 31.9995 18.2522V29.9882M1.99951 54.0002H11.3875C15.3806 54.0006 19.2295 52.5079 22.1782 49.8153C25.1269 47.1227 26.9621 43.4249 27.3235 39.4482L27.7835 34.3842C27.8508 33.6704 27.7125 32.9522 27.3851 32.3144C27.0577 31.6766 26.5547 31.1456 25.9355 30.7842C25.407 30.4734 24.8108 30.2959 24.1983 30.2671C23.5859 30.2383 22.9756 30.3591 22.4203 30.6191C21.865 30.879 21.3814 31.2702 21.0112 31.759C20.641 32.2477 20.3953 32.8193 20.2955 33.4242L19.1995 40.0002" stroke="#5E5D89" stroke-width="2.33333" stroke-linecap="round" stroke-linejoin="round"/>
<path d="M1.99951 39.9841H8.49551C9.46544 39.9848 10.4026 39.6331 11.1325 38.9944C11.8625 38.3557 12.3355 37.4735 12.4635 36.5121L14.9755 17.6521C15.0798 16.8681 15.3873 16.1251 15.8677 15.4968C16.348 14.8686 16.9844 14.3769 17.7135 14.0708C18.4427 13.7646 19.2393 13.6546 20.0242 13.7517C20.8091 13.8487 21.5549 14.1495 22.1875 14.6241C23.3275 15.4801 23.9995 16.8241 23.9995 18.2481V29.9841" stroke="#5E5D89" stroke-width="2.33333" stroke-linecap="round" stroke-linejoin="round"/>
</svg>
