<svg width="56" height="56" viewBox="0 0 56 56" fill="none" xmlns="http://www.w3.org/2000/svg">
<path fill-rule="evenodd" clip-rule="evenodd" d="M42 8.75H28C26.6076 8.75 25.2723 9.30312 24.2877 10.2877C23.3031 11.2723 22.75 12.6076 22.75 14V17.5H28C30.7848 17.5 33.4555 18.6062 35.4246 20.5754C37.3938 22.5445 38.5 25.2152 38.5 28V33.25H42C43.3924 33.25 44.7277 32.6969 45.7123 31.7123C46.6969 30.7277 47.25 29.3924 47.25 28V14C47.25 12.6076 46.6969 11.2723 45.7123 10.2877C44.7277 9.30312 43.3924 8.75 42 8.75ZM38.5 38.5H42C44.7848 38.5 47.4555 37.3938 49.4246 35.4246C51.3938 33.4555 52.5 30.7848 52.5 28V14C52.5 11.2152 51.3938 8.54451 49.4246 6.57538C47.4555 4.60625 44.7848 3.5 42 3.5H28C25.2152 3.5 22.5445 4.60625 20.5754 6.57538C18.6062 8.54451 17.5 11.2152 17.5 14V17.5H14C11.2152 17.5 8.54451 18.6062 6.57538 20.5754C4.60625 22.5445 3.5 25.2152 3.5 28V42C3.5 44.7848 4.60625 47.4555 6.57538 49.4246C8.54451 51.3938 11.2152 52.5 14 52.5H28C30.7848 52.5 33.4555 51.3938 35.4246 49.4246C37.3938 47.4555 38.5 44.7848 38.5 42V38.5ZM14 22.75H28C29.3924 22.75 30.7277 23.3031 31.7123 24.2877C32.6969 25.2723 33.25 26.6076 33.25 28V42C33.25 43.3924 32.6969 44.7277 31.7123 45.7123C30.7277 46.6969 29.3924 47.25 28 47.25H14C12.6076 47.25 11.2723 46.6969 10.2877 45.7123C9.30312 44.7277 8.75 43.3924 8.75 42V28C8.75 26.6076 9.30312 25.2723 10.2877 24.2877C11.2723 23.3031 12.6076 22.75 14 22.75Z" fill="black"/>
<path d="M28 49L46.186 38.5V17.5M28 49L9.81396 38.5V17.5M28 49V28M46.186 17.5L28 7L9.81396 17.5M46.186 17.5L28 28M9.81396 17.5L28 28" stroke="#5E5D89" stroke-width="2.33333" stroke-linecap="round" stroke-linejoin="round"/>
</svg>
