<svg width="56" height="56" viewBox="0 0 56 56" fill="none" xmlns="http://www.w3.org/2000/svg">
<path d="M8.27859 22.715C9.32363 18.8143 11.5019 15.3112 14.538 12.6486C17.5741 9.98598 21.3316 8.28353 25.3353 7.75653C29.339 7.22953 33.4091 7.90166 37.0308 9.68791C40.6525 11.4742 43.6631 14.2943 45.6819 17.7917L46.4636 19.5627M46.4636 19.5627C47.0092 19.4725 47.5051 19.1915 47.8628 18.7697C48.2205 18.3479 48.4168 17.8127 48.4166 17.2597V7.58335M46.4636 19.5627C46.3391 19.5829 46.2124 19.593 46.0833 19.593H36.4069M7.58325 48.4167V38.7404C7.58325 38.1215 7.82908 37.528 8.26667 37.0904C8.70425 36.6528 9.29775 36.407 9.91659 36.407M9.91659 36.407H19.5929M9.91659 36.407L10.3179 38.2084C12.3368 41.7057 15.3474 44.5259 18.9691 46.3121C22.5908 48.0984 26.6608 48.7705 30.6645 48.2435C34.6682 47.7165 38.4257 46.0141 41.4618 43.3514C44.4979 40.6888 46.6762 37.1857 47.7213 33.285" stroke="#5E5D89" stroke-width="2.33333" stroke-linecap="round" stroke-linejoin="round"/>
</svg>
