<svg width="56" height="56" viewBox="0 0 56 56" fill="none" xmlns="http://www.w3.org/2000/svg">
<path d="M22.1691 45.5023C22.1691 43.8363 22.1691 43.0057 22.0781 42.4527C21.7935 40.6723 21.7445 40.558 20.6081 39.158C20.2535 38.7217 18.9468 37.5527 16.3335 35.21C13.6919 32.8473 11.8299 29.7383 10.9939 26.2942C10.1579 22.8502 10.3872 19.2335 11.6516 15.9227C12.9161 12.6118 15.1559 9.76293 18.0748 7.75291C20.9938 5.74289 24.4542 4.66649 27.9983 4.66614C31.5423 4.66578 35.003 5.74149 37.9223 7.75092C40.8416 9.76036 43.082 12.6088 44.3471 15.9194C45.6122 19.23 45.8423 22.8466 45.007 26.2908C44.1717 29.735 42.3103 32.8445 39.6691 35.2077C37.0535 37.5503 35.7468 38.7217 35.3945 39.1557C34.2581 40.5557 34.2091 40.67 33.9221 42.4503C33.8335 43.0033 33.8335 43.8363 33.8335 45.5H22.1668C22.1668 47.6817 22.1668 48.7713 22.6358 49.5833C22.943 50.1154 23.3848 50.5572 23.9168 50.8643C24.7288 51.3333 25.8185 51.3333 28.0001 51.3333C30.1818 51.3333 31.2715 51.3333 32.0858 50.8667C32.6178 50.5595 33.0596 50.1177 33.3668 49.5857C33.8358 48.7737 33.8358 47.684 33.8358 45.5023" stroke="#5E5D89" stroke-width="2.33333"/>
<path d="M28.0003 39.6666V35M28.0003 35C28.8194 35 29.6242 34.7841 30.3335 34.3746C31.0429 33.9651 31.6321 33.376 32.0417 32.6666M28.0003 35C27.1812 35 26.3765 34.7841 25.6671 34.3746C24.9577 33.9651 24.3686 33.376 23.959 32.6666" stroke="#5E5D89" stroke-width="2.33333" stroke-linecap="round"/>
</svg>
