<svg width="22" height="23" viewBox="0 0 22 23" fill="none" xmlns="http://www.w3.org/2000/svg">
<path fill-rule="evenodd" clip-rule="evenodd" d="M1.146 4.13037C1.146 2.61159 2.37721 1.38037 3.896 1.38037C5.41478 1.38037 6.646 2.61159 6.646 4.13037C6.646 5.64915 5.41478 6.88037 3.896 6.88037C2.37721 6.88037 1.146 5.64915 1.146 4.13037ZM3.896 2.75537C3.1366 2.75537 2.521 3.37098 2.521 4.13037C2.521 4.88976 3.1366 5.50537 3.896 5.50537C4.65539 5.50537 5.271 4.88976 5.271 4.13037C5.271 3.37098 4.65539 2.75537 3.896 2.75537Z" fill="white"/>
<path fill-rule="evenodd" clip-rule="evenodd" d="M3.62582 8.25537H4.16619C4.56294 8.25533 4.9267 8.25528 5.22261 8.29507C5.54847 8.33888 5.89288 8.44196 6.17615 8.72523C6.45942 9.0085 6.5625 9.35291 6.60631 9.67877C6.64609 9.97468 6.64605 10.3384 6.64601 10.7352V18.6089C6.64605 19.0056 6.6461 19.3694 6.60631 19.6653C6.5625 19.9912 6.45942 20.3356 6.17615 20.6189C5.89288 20.9021 5.54847 21.0052 5.22261 21.049C4.9267 21.0888 4.56293 21.0888 4.16618 21.0887H3.62582C3.22907 21.0888 2.86531 21.0888 2.5694 21.049C2.24354 21.0052 1.89912 20.9021 1.61585 20.6189C1.33258 20.3356 1.2295 19.9912 1.18569 19.6653C1.14591 19.3694 1.14595 19.0056 1.146 18.6089V10.7352C1.14595 10.3384 1.14591 9.97468 1.18569 9.67877C1.2295 9.35291 1.33258 9.0085 1.61585 8.72523C1.89912 8.44196 2.24354 8.33888 2.5694 8.29507C2.86531 8.25528 3.22907 8.25533 3.62582 8.25537ZM2.58814 9.69751L2.59037 9.69625C2.59214 9.69532 2.59518 9.69384 2.5998 9.69194C2.61977 9.68373 2.6641 9.66971 2.75261 9.65781C2.94577 9.63184 3.21528 9.63038 3.66684 9.63038H4.12517C4.57673 9.63038 4.84623 9.63184 5.03939 9.65781C5.12791 9.66971 5.17224 9.68373 5.1922 9.69194C5.19683 9.69384 5.19986 9.69532 5.20164 9.69625L5.20387 9.69751L5.20513 9.69974C5.20606 9.70152 5.20754 9.70455 5.20944 9.70918C5.21765 9.72914 5.23167 9.77347 5.24357 9.86199C5.26954 10.0551 5.271 10.3247 5.271 10.7762V18.5679C5.271 19.0194 5.26954 19.2889 5.24357 19.4821C5.23167 19.5706 5.21765 19.6149 5.20944 19.6349C5.20754 19.6395 5.20606 19.6426 5.20513 19.6443L5.20387 19.6466L5.20164 19.6478C5.19986 19.6488 5.19683 19.6502 5.1922 19.6521C5.17224 19.6604 5.12791 19.6744 5.03939 19.6863C4.84623 19.7122 4.57673 19.7137 4.12517 19.7137H3.66684C3.21528 19.7137 2.94577 19.7122 2.75261 19.6863C2.6641 19.6744 2.61977 19.6604 2.5998 19.6521C2.59518 19.6502 2.59214 19.6488 2.59037 19.6478L2.58814 19.6466L2.58687 19.6443C2.58595 19.6426 2.58447 19.6395 2.58256 19.6349C2.57435 19.6149 2.56033 19.5706 2.54843 19.4821C2.52246 19.2889 2.521 19.0194 2.521 18.5679V10.7762C2.521 10.3247 2.52246 10.0551 2.54843 9.86199C2.56033 9.77347 2.57435 9.72914 2.58256 9.70918C2.58447 9.70455 2.58595 9.70151 2.58687 9.69974L2.58814 9.69751Z" fill="white"/>
<path fill-rule="evenodd" clip-rule="evenodd" d="M10.5008 8.25537C10.7663 8.25535 11.8353 8.25534 12.0383 8.27393C12.2577 8.29403 12.4967 8.34024 12.7269 8.47493C12.9646 8.61396 13.1624 8.81181 13.3015 9.04943L13.3124 9.06858C14.0364 8.55741 14.9102 8.2556 15.8555 8.2556C18.3261 8.2556 20.8544 10.3586 20.8544 13.0681L20.8532 18.1513C20.8531 18.5479 20.8531 18.9116 20.8132 19.2075C20.7693 19.5333 20.6662 19.8776 20.383 20.1608C20.0997 20.444 19.7554 20.547 19.4296 20.5908C19.1337 20.6306 18.77 20.6305 18.3734 20.6305H17.8341C17.4374 20.6305 17.0736 20.6306 16.7777 20.5908C16.4518 20.547 16.1074 20.4439 15.8241 20.1606C15.5409 19.8774 15.4378 19.533 15.394 19.2071C15.3542 18.9112 15.3543 18.5474 15.3543 18.1507L15.3543 13.9847C15.3543 13.5653 15.044 13.2972 14.7474 13.2972C14.2732 13.2972 14.0184 13.479 13.8432 13.7698C13.6373 14.1118 13.5211 14.6526 13.5211 15.3597L13.521 18.6089C13.5211 19.0057 13.5211 19.3694 13.4813 19.6653C13.4375 19.9912 13.3344 20.3356 13.0512 20.6189C12.7679 20.9021 12.4235 21.0052 12.0976 21.049C11.8017 21.0888 11.4379 21.0888 11.0412 21.0887H10.5008C10.1041 21.0888 9.7403 21.0888 9.4444 21.049C9.11854 21.0052 8.77412 20.9021 8.49085 20.6189C8.20758 20.3356 8.1045 19.9912 8.06069 19.6653C8.02091 19.3694 8.02095 19.0056 8.021 18.6089V10.7352C8.02095 10.3384 8.02091 9.97468 8.06069 9.67877C8.1045 9.35291 8.20758 9.0085 8.49085 8.72523C8.77412 8.44196 9.11854 8.33888 9.4444 8.29507C9.74031 8.25528 10.1041 8.25533 10.5008 8.25537ZM10.5418 9.63037C10.0903 9.63037 9.82077 9.63183 9.6276 9.6578C9.56558 9.65539 9.43791 9.69285 9.42343 9.86198C9.39746 10.0551 9.396 10.3246 9.396 10.7762V18.5679C9.396 19.0194 9.39746 19.2889 9.42343 19.4821C9.43449 19.5939 9.56415 19.6648 9.6276 19.6863C9.82077 19.7122 10.0903 19.7137 10.5418 19.7137H11.0002C11.4517 19.7137 11.7212 19.7122 11.9144 19.6863C11.9775 19.6703 12.1066 19.6072 12.1186 19.4821C12.1445 19.2889 12.146 19.0194 12.146 18.5679L12.146 15.3596C12.146 14.5479 12.2718 13.7138 12.6654 13.0604C13.0897 12.3559 13.7917 11.9221 14.7474 11.9221C15.8805 11.9221 16.7293 12.8853 16.7293 13.9846V18.1096C16.7293 18.5612 16.7308 18.8307 16.7567 19.0239C16.7567 19.1688 16.8443 19.193 16.9127 19.212C16.9307 19.217 16.9475 19.2216 16.9609 19.2281C17.1541 19.254 17.4236 19.2555 17.8751 19.2555L18.3323 19.2555C18.7838 19.2555 19.0532 19.254 19.2463 19.2281C19.3099 19.2045 19.4398 19.1306 19.4505 19.0239C19.4765 18.8308 19.4781 18.5614 19.4782 18.1099L19.4794 13.0679C19.4793 11.2211 17.6742 9.63059 15.8555 9.63059C14.8678 9.63059 13.9741 10.1135 13.3807 10.8936C13.2021 11.1284 12.8935 11.2231 12.6139 11.1288C12.3343 11.0345 12.1461 10.7724 12.146 10.4773C12.146 10.1758 12.1454 9.99611 12.1332 9.86356C12.1257 9.72492 11.9832 9.65888 11.9128 9.64319C11.7803 9.63104 11.6006 9.63037 11.299 9.63037H10.5418Z" fill="white"/>
</svg>
