<svg width="22" height="23" viewBox="0 0 22 23" fill="none" xmlns="http://www.w3.org/2000/svg">
<path fill-rule="evenodd" clip-rule="evenodd" d="M2.53529 8.98325C2.56196 7.73202 2.58292 6.81389 2.67783 6.0875L7.83094 9.01299C9.00953 9.6821 9.9768 10.0884 11.0001 10.0884C12.0234 10.0884 12.9906 9.6821 14.1692 9.01299L19.3225 6.08742C19.4174 6.81382 19.4384 7.73198 19.465 8.98327L19.4675 9.09925C19.4748 9.4395 19.4786 9.61698 19.4792 9.86095C19.4802 10.2406 19.7888 10.5477 20.1685 10.5467C20.5482 10.5458 20.8552 10.2372 20.8542 9.85748C20.8536 9.59993 20.8495 9.40925 20.8423 9.07208L20.8386 8.9002C20.8096 7.54009 20.7862 6.44219 20.6327 5.55773C20.4715 4.62891 20.158 3.87261 19.5128 3.2246C18.8649 2.57382 18.0979 2.25839 17.1541 2.09393C16.2527 1.93685 15.1279 1.9086 13.7302 1.87348L13.6769 1.87214C11.8866 1.82713 10.1138 1.82713 8.32347 1.87213L8.27014 1.87347C6.8724 1.90859 5.74764 1.93684 4.84624 2.09392C3.90246 2.25837 3.13544 2.5738 2.48751 3.22458C1.84232 3.8726 1.5288 4.6289 1.3676 5.55771C1.21409 6.44217 1.19071 7.54003 1.16175 8.90013L1.1606 8.95396C1.14113 9.86779 1.14113 10.7763 1.1606 11.6901L1.16175 11.7439C1.19072 13.104 1.2141 14.2019 1.3676 15.0864C1.5288 16.0152 1.84232 16.7715 2.48751 17.4195C3.13545 18.0703 3.90246 18.3857 4.84624 18.5502C5.74764 18.7072 6.8724 18.7355 8.27014 18.7706L8.32348 18.7719C8.75522 18.7828 9.18596 18.791 9.61618 18.7967C9.99585 18.8016 10.3076 18.4979 10.3126 18.1182C10.3176 17.7385 10.0138 17.4267 9.63414 17.4218C9.20948 17.4162 8.78427 17.4081 8.35803 17.3974C6.89441 17.3606 5.87172 17.3331 5.08228 17.1956C4.32378 17.0634 3.85083 16.84 3.4619 16.4493C3.07023 16.056 2.85033 15.5886 2.72235 14.8512C2.58869 14.0811 2.5657 13.0875 2.53529 11.6608C2.51623 10.7665 2.51623 9.87756 2.53529 8.98325ZM13.6423 3.2467C11.875 3.20227 10.1253 3.20227 8.35803 3.2467C6.89441 3.28349 5.87171 3.31094 5.08228 3.4485C4.32378 3.58068 3.85083 3.80409 3.4619 4.19473C3.30241 4.35491 3.1714 4.52736 3.06349 4.72531L8.50978 7.81725C9.64635 8.46249 10.3512 8.71338 11.0001 8.71338C11.6489 8.71338 12.3538 8.46249 13.4904 7.81725L18.9368 4.72525C18.8289 4.52733 18.6979 4.35491 18.5384 4.19474C18.1495 3.80411 17.6765 3.58069 16.918 3.44852C16.1286 3.31095 15.1059 3.2835 13.6423 3.2467Z" fill="white"/>
<path fill-rule="evenodd" clip-rule="evenodd" d="M12.6043 15.8175C12.6043 13.9191 14.1434 12.38 16.0418 12.38C17.9403 12.38 19.4793 13.9191 19.4793 15.8175V16.2759C19.4793 16.6556 19.1715 16.9634 18.7918 16.9634C18.4121 16.9634 18.1043 16.6556 18.1043 16.2759V15.8175C18.1043 14.6785 17.1809 13.755 16.0418 13.755C14.9027 13.755 13.9793 14.6785 13.9793 15.8175C13.9793 16.9566 14.9027 17.88 16.0418 17.88C16.4569 17.88 16.8434 17.7574 17.167 17.5464C17.5445 18.0285 18.132 18.3384 18.7918 18.3384C19.9309 18.3384 20.8543 17.415 20.8543 16.2759V15.8175C20.8543 13.1597 18.6997 11.005 16.0418 11.005C13.384 11.005 11.2293 13.1597 11.2293 15.8175C11.2293 18.4754 13.384 20.63 16.0418 20.63C16.4215 20.63 16.7293 20.3222 16.7293 19.9425C16.7293 19.5629 16.4215 19.255 16.0418 19.255C14.1434 19.255 12.6043 17.716 12.6043 15.8175ZM16.0418 15.13C16.4215 15.13 16.7293 15.4379 16.7293 15.8175C16.7293 16.1972 16.4215 16.505 16.0418 16.505C15.6621 16.505 15.3543 16.1972 15.3543 15.8175C15.3543 15.4379 15.6621 15.13 16.0418 15.13Z" fill="white"/>
</svg>
