<svg width="506" height="361" viewBox="0 0 506 361" fill="none" xmlns="http://www.w3.org/2000/svg">
<g opacity="0.15">
<g opacity="0.600006">
<path d="M401.757 290.784L376.553 265.581C368.965 257.993 368.965 245.689 376.553 238.099C384.141 230.511 396.445 230.511 404.035 238.099L429.238 263.303C436.826 270.892 436.826 283.196 429.238 290.784C421.649 298.372 409.345 298.372 401.757 290.784ZM-166.873 -223.061L193.013 136.825C200.614 144.389 212.898 144.394 220.506 136.837C227.469 129.823 228.087 118.711 221.944 110.97L70.1603 -40.8137C62.5961 -48.415 62.5908 -60.6976 70.1484 -68.3055C77.755 -75.8631 90.0376 -75.8578 97.6389 -68.2949L366.803 200.868C374.391 208.457 374.391 220.761 366.801 228.349C359.213 235.938 346.91 235.938 339.32 228.349L325.649 214.676C317.907 208.531 306.794 209.148 299.78 216.111C292.223 223.719 292.228 236.003 299.794 243.604L409.712 353.523C417.3 361.111 417.3 373.414 409.712 381.004C402.122 388.592 389.819 388.592 382.231 381.004L298.365 297.138C290.636 291.793 280.196 292.717 273.527 299.339C265.969 306.947 265.974 319.229 273.54 326.831L468.906 522.2C476.504 529.779 476.52 542.081 468.941 549.68C461.362 557.277 449.06 557.293 441.461 549.714C441.449 549.702 441.439 549.69 441.427 549.678L-28.1414 80.113C-35.7043 72.5104 -35.7082 60.2279 -28.1506 52.62C-20.544 45.0637 -8.26146 45.069 -0.660161 52.6319L76.8161 130.109C84.4187 137.674 96.7013 137.678 104.311 130.121C110.931 123.452 111.855 113.012 106.509 105.283L-194.354 -195.579C-201.917 -203.182 -201.921 -215.465 -194.365 -223.073C-186.757 -230.63 -174.474 -230.625 -166.873 -223.061ZM-158.175 -104.884L-39.4771 13.8149C-31.9129 21.4162 -31.9063 33.7001 -39.4638 41.3067C-47.0731 48.8643 -59.3557 48.859 -66.9583 41.2961L-185.656 -77.4045C-193.222 -85.0045 -193.227 -97.2884 -185.67 -104.896C-178.06 -112.454 -165.778 -112.449 -158.175 -104.884Z" stroke="white" stroke-width="1.25276"/>
</g>
<path d="M154.305 263.071L84.6753 193.441C77.1137 185.833 77.1151 173.547 84.678 165.942C92.2845 158.379 104.571 158.379 112.178 165.942L181.809 235.569C189.369 243.177 189.369 255.462 181.809 263.07C174.201 270.633 161.913 270.634 154.305 263.071ZM-286.725 -123.13L-150.822 12.7728C-143.212 20.3331 -130.927 20.3317 -123.321 12.7702C-116.354 5.75553 -115.733 -5.36036 -121.873 -13.1073L-186.838 -78.0719C-194.399 -85.6798 -194.398 -97.965 -186.834 -105.572C-179.229 -113.136 -166.941 -113.136 -159.334 -105.572L64.4471 118.207C72.0087 125.815 72.0074 138.101 64.4445 145.707C56.8379 153.27 44.5514 153.27 36.9448 145.707L-28.0198 80.7448C-35.7654 74.6029 -46.8813 75.2253 -53.8946 82.1935C-61.4575 89.7988 -61.4602 102.083 -53.8999 109.692L299.655 463.249C307.217 470.857 307.217 483.142 299.655 490.75C292.048 498.313 279.76 498.313 272.152 490.75L252.322 470.918C244.326 463.749 232.032 464.421 224.864 472.417C218.526 479.487 218.22 490.102 224.143 497.525L289.106 562.489C296.667 570.097 296.665 582.384 289.102 589.99C281.496 597.553 269.209 597.553 261.603 589.99L37.8214 366.213C30.2599 358.604 30.2612 346.319 37.8241 338.712C45.4307 331.149 57.7172 331.149 65.3238 338.712L130.288 403.673C138.682 410.371 150.916 408.996 157.615 400.603C163.537 393.18 163.232 382.564 156.893 375.494L-314.228 -95.6277C-321.79 -103.236 -321.789 -115.523 -314.224 -123.13C-306.618 -130.693 -294.331 -130.693 -286.725 -123.13Z" stroke="white" stroke-width="1.56661"/>
</g>
</svg>
