<svg width="308" height="361" viewBox="0 0 308 361" fill="none" xmlns="http://www.w3.org/2000/svg">
<g opacity="0.1">
<g opacity="0.600006">
<path d="M125.419 284.228L156.005 314.814C165.214 324.023 165.214 338.954 156.005 348.164C146.796 357.373 131.865 357.373 122.654 348.164L92.068 317.578C82.8594 308.368 82.8594 293.436 92.068 284.228C101.278 275.019 116.21 275.019 125.419 284.228ZM815.494 907.817L378.745 471.069C369.521 461.889 354.613 461.883 345.381 471.054C336.93 479.566 336.18 493.051 343.635 502.446L527.836 686.647C537.016 695.871 537.022 710.777 527.85 720.01C518.619 729.182 503.713 729.175 494.489 719.997L167.838 393.348C158.629 384.138 158.629 369.206 167.84 359.997C177.048 350.787 191.98 350.787 201.19 359.997L217.782 376.591C227.177 384.048 240.664 383.299 249.175 374.849C258.346 365.616 258.34 350.708 249.159 341.484L115.765 208.09C106.556 198.881 106.556 183.949 115.765 174.739C124.975 165.531 139.907 165.531 149.115 174.739L250.893 276.517C260.272 283.003 272.942 281.881 281.035 273.846C290.207 264.613 290.201 249.707 281.019 240.482L43.9274 3.3871C34.7075 -5.81032 34.6882 -20.7402 43.8856 -29.9618C53.0831 -39.1817 68.013 -39.201 77.2345 -30.0035C77.249 -29.9891 77.2619 -29.9747 77.2763 -29.9602L647.133 539.893C656.311 549.119 656.315 564.025 647.144 573.258C637.913 582.428 623.007 582.421 613.782 573.243L519.759 479.218C510.532 470.039 495.627 470.034 486.392 479.204C478.358 487.297 477.236 499.968 483.724 509.347L848.844 874.466C858.022 883.693 858.027 898.599 848.857 907.831C839.624 917.003 824.718 916.997 815.494 907.817ZM804.938 764.401L660.889 620.351C651.71 611.126 651.701 596.218 660.873 586.987C670.108 577.815 685.013 577.822 694.24 587L838.289 731.052C847.47 740.275 847.477 755.183 838.305 764.416C829.07 773.587 814.165 773.581 804.938 764.401Z" stroke="white" stroke-width="1.52031"/>
</g>
<path d="M425.718 317.859L510.219 402.36C519.396 411.593 519.394 426.504 510.216 435.733C500.985 444.911 486.074 444.911 476.843 435.733L392.34 351.235C383.165 342.003 383.165 327.093 392.34 317.861C401.573 308.683 416.485 308.681 425.718 317.859ZM960.941 786.544L796.012 621.615C786.778 612.44 771.869 612.442 762.638 621.618C754.183 630.131 753.429 643.621 760.881 653.023L839.721 731.862C848.897 741.095 848.896 756.004 839.716 765.235C830.486 774.415 815.574 774.415 806.343 765.235L534.767 493.663C525.591 484.43 525.593 469.519 534.771 460.29C544.002 451.112 558.912 451.112 568.144 460.29L646.983 539.126C656.383 546.58 669.873 545.824 678.384 537.368C687.562 528.138 687.566 513.231 678.391 503.996L249.324 74.9285C240.148 65.6958 240.148 50.7867 249.324 41.5539C258.557 32.3758 273.469 32.3758 282.702 41.5539L306.767 65.6218C316.47 74.321 331.391 73.5062 340.09 63.8026C347.782 55.2223 348.153 42.3398 340.964 33.332L262.126 -45.5074C252.952 -54.7402 252.953 -69.6509 262.131 -78.8821C271.362 -88.0602 286.273 -88.0602 295.504 -78.8821L567.08 192.689C576.256 201.923 576.255 216.832 567.077 226.063C557.845 235.241 542.935 235.241 533.704 226.063L454.864 147.229C444.678 139.1 429.83 140.768 421.702 150.954C414.515 159.962 414.884 172.846 422.578 181.426L994.319 753.167C1003.5 762.4 1003.49 777.312 994.314 786.544C985.083 795.722 970.172 795.722 960.941 786.544Z" stroke="white" stroke-width="1.9012"/>
</g>
</svg>
