<svg width="22" height="23" viewBox="0 0 22 23" fill="none" xmlns="http://www.w3.org/2000/svg">
<path fill-rule="evenodd" clip-rule="evenodd" d="M2.13788 2.67139C2.25541 2.44152 2.49183 2.29688 2.75 2.29688H7.33334C7.5541 2.29688 7.76143 2.40289 7.89068 2.58185L12.4153 8.84677L18.7639 2.49824C19.0324 2.22975 19.4677 2.22975 19.7361 2.49824C20.0046 2.76672 20.0046 3.20203 19.7361 3.47051L13.2308 9.97586L19.8073 19.0819C19.9585 19.2911 19.9797 19.5675 19.8621 19.7974C19.7446 20.0272 19.5082 20.1719 19.25 20.1719H14.6667C14.4459 20.1719 14.2386 20.0659 14.1093 19.8869L9.58467 13.622L3.23614 19.9705C2.96765 20.239 2.53235 20.239 2.26387 19.9705C1.99538 19.702 1.99538 19.2667 2.26387 18.9982L8.76921 12.4929L2.19266 3.3869C2.0415 3.1776 2.02034 2.90126 2.13788 2.67139ZM4.09458 3.67188L15.0182 18.7969H17.9054L6.98181 3.67188H4.09458Z" fill="white"/>
</svg>
