<svg width="24" height="25" viewBox="0 0 24 25" fill="none" xmlns="http://www.w3.org/2000/svg">
<path fill-rule="evenodd" clip-rule="evenodd" d="M10.586 2.24063C10.94 1.8871 11.4136 1.67908 11.9134 1.65761C12.4132 1.63613 12.903 1.80276 13.286 2.12463L13.414 2.24163L15.314 4.14063H18C18.5044 4.14072 18.9901 4.3314 19.3599 4.67446C19.7297 5.01753 19.9561 5.48764 19.994 5.99063L20 6.14063V8.82663L21.9 10.7266C22.2538 11.0807 22.462 11.5545 22.4834 12.0546C22.5049 12.5546 22.3381 13.0446 22.016 13.4276L21.899 13.5546L19.999 15.4546V18.1406C19.9991 18.6452 19.8086 19.1312 19.4655 19.5012C19.1224 19.8712 18.6521 20.0978 18.149 20.1356L18 20.1406H15.315L13.415 22.0406C13.0609 22.3944 12.5871 22.6026 12.087 22.6241C11.587 22.6456 11.097 22.4788 10.714 22.1566L10.587 22.0406L8.68697 20.1406H5.99997C5.49539 20.1408 5.0094 19.9502 4.63942 19.6071C4.26944 19.264 4.04281 18.7938 4.00497 18.2906L3.99997 18.1406V15.4546L2.09997 13.5546C1.74616 13.2006 1.53797 12.7268 1.51649 12.2267C1.49502 11.7266 1.66182 11.2367 1.98397 10.8536L2.09997 10.7266L3.99997 8.82663V6.14063C4.00006 5.63622 4.19074 5.15048 4.53381 4.78071C4.87687 4.41094 5.34699 4.18446 5.84997 4.14663L5.99997 4.14063H8.68597L10.586 2.24063ZM15.079 9.12363L10.835 13.3676L9.06697 11.5996C8.87933 11.4121 8.62489 11.3068 8.35962 11.3069C8.09435 11.307 7.83998 11.4125 7.65247 11.6001C7.46496 11.7878 7.35967 12.0422 7.35977 12.3075C7.35986 12.5728 7.46533 12.8271 7.65297 13.0146L10.057 15.4186C10.1591 15.5208 10.2804 15.6019 10.4139 15.6572C10.5474 15.7125 10.6905 15.741 10.835 15.741C10.9795 15.741 11.1226 15.7125 11.256 15.6572C11.3895 15.6019 11.5108 15.5208 11.613 15.4186L16.493 10.5376C16.6751 10.349 16.7759 10.0964 16.7736 9.83423C16.7714 9.57203 16.6662 9.32122 16.4808 9.13581C16.2954 8.9504 16.0446 8.84523 15.7824 8.84295C15.5202 8.84067 15.2676 8.94147 15.079 9.12363Z" fill="#1B1464"/>
</svg>
